<?xml version="1.0" standalone="no"?>
<!DOCTYPE svg PUBLIC "-//W3C//DTD SVG 20010904//EN"
 "http://www.w3.org/TR/2001/REC-SVG-20010904/DTD/svg10.dtd">
<svg version="1.0" xmlns="http://www.w3.org/2000/svg"
 width="607.000000pt" height="255.000000pt" viewBox="0 0 607.000000 255.000000"
 preserveAspectRatio="xMidYMid meet">

<g transform="translate(0.000000,255.000000) scale(0.100000,-0.100000)"
fill="#000000" stroke="none">
<path d="M978 2280 c-49 -26 -94 -83 -107 -136 -6 -23 -11 -129 -11 -233 l0
-191 -196 0 c-223 0 -261 -7 -314 -60 -57 -57 -60 -80 -60 -451 0 -375 2 -383
73 -446 42 -37 91 -53 165 -53 l52 0 0 -113 c0 -182 20 -183 190 -12 l125 125
185 0 c105 0 202 5 225 11 52 15 119 82 134 134 6 22 11 109 11 193 0 138 2
152 18 152 9 0 80 -63 157 -140 190 -190 205 -189 205 11 l0 127 83 3 c111 5
169 38 210 118 l27 55 0 370 c0 231 -4 385 -11 409 -13 47 -72 115 -116 134
-26 10 -133 13 -520 13 -463 -1 -490 -2 -525 -20z m1023 -87 c57 -34 59 -46
59 -440 0 -321 -2 -362 -18 -393 -26 -54 -69 -70 -184 -70 -118 0 -118 0 -118
-127 l0 -88 -108 108 -107 107 -235 0 c-362 0 -340 -29 -340 458 0 383 2 398
55 440 28 22 31 22 497 22 425 0 473 -2 499 -17z m-1141 -676 c0 -133 16 -198
60 -245 59 -62 78 -67 268 -70 l173 -4 -3 -164 -3 -164 -33 -32 -32 -33 -218
-3 -217 -3 -92 -92 -93 -92 0 73 c0 108 -4 112 -106 112 -102 0 -145 17 -168
65 -23 48 -24 661 -1 705 28 54 50 59 268 60 l197 0 0 -113z"/>
<path d="M1323 1950 c-55 -25 -83 -70 -83 -134 0 -95 57 -173 198 -273 l74
-51 89 65 c135 99 179 161 179 255 0 70 -27 113 -85 139 -59 26 -108 17 -153
-27 l-34 -34 -24 30 c-22 25 -76 50 -109 50 -5 0 -29 -9 -52 -20z"/>
<path d="M2666 1954 c-3 -9 -6 -113 -6 -233 0 -155 -3 -220 -12 -229 -17 -17
-84 -15 -102 4 -12 11 -16 35 -16 89 0 57 -3 74 -16 79 -23 9 -147 7 -162 -3
-11 -6 -13 -36 -10 -129 4 -141 13 -162 94 -202 43 -21 62 -25 154 -25 168 0
245 34 269 121 11 41 16 500 5 528 -9 24 -189 24 -198 0z"/>
<path d="M2366 1154 c-8 -20 -8 -598 0 -618 5 -14 34 -16 213 -16 195 0 209 1
251 22 89 45 106 108 98 361 -6 183 -22 218 -117 252 -65 23 -436 22 -445 -1z
m343 -168 c8 -9 11 -59 9 -152 l-3 -139 -72 -3 -73 -3 0 156 0 155 64 0 c42 0
67 -5 75 -14z"/>
<path d="M3046 1148 c-8 -30 -8 -576 0 -606 6 -22 10 -23 103 -20 l96 3 3 103
3 103 77 -3 77 -3 3 -80 c4 -134 -3 -126 110 -123 l97 3 0 131 c0 151 -7 173
-69 204 -23 11 -35 20 -28 20 44 0 55 174 15 229 -40 55 -70 61 -284 61 -195
0 -197 0 -203 -22z m302 -150 c16 -16 16 -80 0 -96 -7 -7 -31 -12 -55 -12
l-43 0 0 60 0 60 43 0 c24 0 48 -5 55 -12z"/>
<path d="M3714 1157 c-3 -8 -4 -45 -2 -83 l3 -69 58 -3 57 -3 0 -154 0 -154
-57 -3 -58 -3 0 -80 0 -80 220 0 220 0 3 74 c3 86 0 91 -70 91 l-48 0 0 155 0
154 58 3 57 3 0 80 0 80 -218 3 c-177 2 -218 0 -223 -11z"/>
<path d="M4264 1156 c-3 -8 -4 -86 -2 -173 l5 -158 57 -140 c32 -77 63 -146
68 -152 15 -18 291 -18 306 0 6 7 37 78 69 157 l57 145 4 143 c2 79 1 154 -2
168 -6 24 -8 25 -104 22 l-97 -3 -5 -155 c-4 -130 -9 -167 -30 -228 -32 -95
-51 -95 -88 -2 -22 57 -26 85 -31 225 l-6 160 -98 3 c-79 2 -98 0 -103 -12z"/>
<path d="M4945 1157 c-3 -7 -4 -152 -3 -322 l3 -310 240 0 240 0 3 68 c2 42
-2 74 -9 83 -9 11 -42 14 -146 14 l-134 0 3 38 3 37 103 3 103 3 -3 77 -3 77
-102 3 -103 3 0 34 0 35 139 0 c157 0 151 -4 151 85 0 91 18 85 -246 85 -180
0 -236 -3 -239 -13z"/>
</g>
</svg>
